<svg xmlns="http://www.w3.org/2000/svg" viewBox="0 0 500 500"><g id="freepik--Floor--inject-29"><ellipse id="freepik--floor--inject-29" cx="250" cy="322.51" rx="238.19" ry="137.52" style="fill:#f0f0f0"></ellipse></g><g id="freepik--Documents--inject-29"><g id="freepik--Copies--inject-29"><g id="freepik--Document--inject-29"><path d="M44.55,308.13a4.24,4.24,0,0,1-1.84-3.34V139.53a4.34,4.34,0,0,1,2-3.4l97.62-56.3A3.69,3.69,0,0,1,148,83.09V248.35a4.36,4.36,0,0,1-2,3.41l-97.63,56.3A4.23,4.23,0,0,1,44.55,308.13Z" style="fill:#fafafa"></path><path d="M48.36,308.06,146,251.76a4.36,4.36,0,0,0,2-3.41V83.09c0-1.25-.88-1.76-2-1.13l-97.62,56.3a4.36,4.36,0,0,0-2,3.4V306.92C46.4,308.18,47.28,308.68,48.36,308.06Z" style="fill:#f5f5f5"></path><path d="M48.11,308.19a4.19,4.19,0,0,1-3.55-.06,4.21,4.21,0,0,1-1.84-3.33V139.54a4.08,4.08,0,0,1,.57-1.94L47,139.73a4,4,0,0,0-.58,1.93V306.93C46.4,308.08,47.15,308.6,48.11,308.19Z" style="fill:#ebebeb"></path><path d="M100.46,121l32.31-18.7c1-.55,1.73-.1,1.73,1V104a3.81,3.81,0,0,1-1.73,3l-32.31,18.7c-1,.55-1.73.1-1.73-1V124A3.83,3.83,0,0,1,100.46,121Z" style="fill:#e0e0e0"></path><path d="M100.46,132.67,132.77,114c1-.55,1.73-.1,1.73,1v.69a3.81,3.81,0,0,1-1.73,3l-32.31,18.7c-1,.55-1.73.11-1.73-1v-.69A3.85,3.85,0,0,1,100.46,132.67Z" style="fill:#e0e0e0"></path><path d="M100.46,144.38l32.31-18.69c1-.56,1.73-.11,1.73,1v.69a3.84,3.84,0,0,1-1.73,3l-32.31,18.69c-1,.56-1.73.11-1.73-1v-.69A3.86,3.86,0,0,1,100.46,144.38Z" style="fill:#e0e0e0"></path><path d="M100.46,156.1l32.31-18.7c1-.55,1.73-.11,1.73,1v.69a3.82,3.82,0,0,1-1.73,3l-32.31,18.7c-1,.55-1.73.1-1.73-1v-.69A3.83,3.83,0,0,1,100.46,156.1Z" style="fill:#e0e0e0"></path><path d="M59.06,191.67l73.71-42.56c1-.55,1.73-.1,1.73,1v.69a3.81,3.81,0,0,1-1.73,3L59.06,196.36c-1,.55-1.73.11-1.73-1v-.69A3.82,3.82,0,0,1,59.06,191.67Z" style="fill:#e0e0e0"></path><path d="M59.06,203.47l73.71-42.56c1-.55,1.73-.11,1.73,1v.69a3.82,3.82,0,0,1-1.73,3L59.06,208.16c-1,.55-1.73.1-1.73-1v-.69A3.81,3.81,0,0,1,59.06,203.47Z" style="fill:#e0e0e0"></path><path d="M59.06,215.18l73.71-42.56c1-.55,1.73-.1,1.73,1v.69a3.81,3.81,0,0,1-1.73,3L59.06,219.87c-1,.55-1.73.11-1.73-1v-.69A3.82,3.82,0,0,1,59.06,215.18Z" style="fill:#e0e0e0"></path><path d="M59.06,226.89l73.71-42.56c1-.55,1.73-.1,1.73,1V186a3.81,3.81,0,0,1-1.73,3L59.06,231.58c-1,.56-1.73.11-1.73-1v-.69A3.84,3.84,0,0,1,59.06,226.89Z" style="fill:#e0e0e0"></path><path d="M59.06,238.61l73.71-42.56c1-.56,1.73-.11,1.73,1v.69a3.84,3.84,0,0,1-1.73,3L59.06,243.3c-1,.55-1.73.1-1.73-1v-.69A3.81,3.81,0,0,1,59.06,238.61Z" style="fill:#e0e0e0"></path><path d="M59.06,250.32l73.71-42.56c1-.55,1.73-.11,1.73,1v.69a3.82,3.82,0,0,1-1.73,3L59.06,255c-1,.55-1.73.1-1.73-1v-.69A3.81,3.81,0,0,1,59.06,250.32Z" style="fill:#e0e0e0"></path><path d="M59.06,262.08l73.71-42.56c1-.55,1.73-.1,1.73,1v.69a3.81,3.81,0,0,1-1.73,3L59.06,266.77c-1,.56-1.73.11-1.73-1v-.69A3.82,3.82,0,0,1,59.06,262.08Z" style="fill:#e0e0e0"></path><path d="M59.06,273.79l73.71-42.55c1-.56,1.73-.11,1.73,1v.69a3.84,3.84,0,0,1-1.73,3L59.06,278.49c-1,.55-1.73.1-1.73-1v-.7A3.84,3.84,0,0,1,59.06,273.79Z" style="fill:#e0e0e0"></path><path d="M59.06,285.51,132.77,243c1-.55,1.73-.11,1.73,1v.69a3.82,3.82,0,0,1-1.73,3L59.06,290.2c-1,.55-1.73.1-1.73-1v-.69A3.81,3.81,0,0,1,59.06,285.51Z" style="fill:#e0e0e0"></path><g style="opacity:0.30000000000000004"><polygon points="57.79 145.86 93.33 125.33 93.34 166.38 57.79 186.91 57.79 145.86"></polygon></g><path d="M63.12,150v12.32l1.11-.66v-3.78a7.86,7.86,0,0,1,3.79-6l5.26-3v18.3a7.87,7.87,0,0,1-3.3,6.28l-3.31,1.91v1.31l17.78-10.27v-1.3l-3.3,1.9c-1.83,1.06-3.31,0-3.31-2.47v-18.3l5.26-3c2.09-1.21,3.79-.5,3.79,1.58v3.77l1.11-.62V135.6Z" style="fill:#fafafa"></path></g><g id="freepik--document--inject-29"><path d="M73,324.54a4.22,4.22,0,0,1-1.85-3.33V155.94a4.34,4.34,0,0,1,2-3.4l97.62-56.3a3.69,3.69,0,0,1,5.65,3.26V264.76a4.36,4.36,0,0,1-2,3.41l-97.62,56.3A4.23,4.23,0,0,1,73,324.54Z" style="fill:#fafafa"></path><path d="M76.81,324.47l97.62-56.3a4.36,4.36,0,0,0,2-3.41V99.5c0-1.25-.88-1.76-2-1.13L76.8,154.67a4.36,4.36,0,0,0-2,3.4V323.33C74.84,324.59,75.72,325.09,76.81,324.47Z" style="fill:#f5f5f5"></path><path d="M76.55,324.6a3.67,3.67,0,0,1-5.39-3.39V156a4.08,4.08,0,0,1,.57-1.94l3.69,2.13a4,4,0,0,0-.58,1.93V323.34C74.84,324.49,75.59,325,76.55,324.6Z" style="fill:#ebebeb"></path><path d="M128.91,137.37l32.31-18.7c.95-.55,1.73-.1,1.73,1v.69a3.83,3.83,0,0,1-1.73,3l-32.32,18.7c-1,.55-1.73.1-1.73-1v-.69A3.83,3.83,0,0,1,128.91,137.37Z" style="fill:#e0e0e0"></path><path d="M128.91,149.08l32.31-18.7c.95-.55,1.73-.1,1.73,1v.69a3.83,3.83,0,0,1-1.73,3l-32.32,18.7c-1,.55-1.73.11-1.73-1v-.69A3.83,3.83,0,0,1,128.91,149.08Z" style="fill:#e0e0e0"></path><path d="M128.91,160.79l32.31-18.69c.95-.56,1.73-.11,1.73,1v.69a3.86,3.86,0,0,1-1.73,3l-32.32,18.7c-1,.55-1.73.1-1.73-1v-.7A3.85,3.85,0,0,1,128.91,160.79Z" style="fill:#e0e0e0"></path><path d="M128.91,172.51l32.31-18.7c.95-.55,1.73-.11,1.73,1v.69a3.85,3.85,0,0,1-1.73,3L128.9,177.2c-1,.55-1.73.1-1.73-1v-.69A3.82,3.82,0,0,1,128.91,172.51Z" style="fill:#e0e0e0"></path><path d="M87.5,208.08l73.72-42.56c.95-.55,1.73-.1,1.73,1v.69a3.83,3.83,0,0,1-1.73,3L87.5,212.77c-1,.55-1.73.11-1.73-1v-.69A3.85,3.85,0,0,1,87.5,208.08Z" style="fill:#e0e0e0"></path><path d="M87.5,219.88l73.72-42.56c.95-.55,1.73-.1,1.73,1V179a3.85,3.85,0,0,1-1.73,3L87.5,224.57c-1,.55-1.73.1-1.73-1v-.69A3.83,3.83,0,0,1,87.5,219.88Z" style="fill:#e0e0e0"></path><path d="M87.5,231.59,161.22,189c.95-.55,1.73-.1,1.73,1v.69a3.83,3.83,0,0,1-1.73,3L87.5,236.28c-1,.55-1.73.11-1.73-1v-.69A3.85,3.85,0,0,1,87.5,231.59Z" style="fill:#e0e0e0"></path><path d="M87.5,243.3l73.72-42.56c.95-.55,1.73-.1,1.73,1v.7a3.86,3.86,0,0,1-1.73,3L87.5,248c-1,.56-1.73.11-1.73-1v-.69A3.86,3.86,0,0,1,87.5,243.3Z" style="fill:#e0e0e0"></path><path d="M87.5,255l73.72-42.56c.95-.56,1.73-.11,1.73,1v.69a3.85,3.85,0,0,1-1.73,3L87.5,259.71c-1,.55-1.73.1-1.73-1V258A3.83,3.83,0,0,1,87.5,255Z" style="fill:#e0e0e0"></path><path d="M87.5,266.73l73.72-42.56c.95-.55,1.73-.1,1.73,1v.69a3.85,3.85,0,0,1-1.73,3L87.5,271.42c-1,.55-1.73.1-1.73-1v-.69A3.83,3.83,0,0,1,87.5,266.73Z" style="fill:#e0e0e0"></path><path d="M87.5,278.49l73.72-42.56c.95-.55,1.73-.1,1.73,1v.69a3.83,3.83,0,0,1-1.73,3L87.5,283.18c-1,.56-1.73.11-1.73-1v-.69A3.86,3.86,0,0,1,87.5,278.49Z" style="fill:#e0e0e0"></path><path d="M87.5,290.21l73.72-42.56c.95-.56,1.73-.11,1.73,1v.69a3.86,3.86,0,0,1-1.73,3L87.5,294.9c-1,.55-1.73.1-1.73-1v-.69A3.83,3.83,0,0,1,87.5,290.21Z" style="fill:#e0e0e0"></path><path d="M87.5,301.92l73.72-42.56c.95-.55,1.73-.11,1.73,1v.69a3.85,3.85,0,0,1-1.73,3L87.5,306.61c-1,.55-1.73.1-1.73-1v-.69A3.83,3.83,0,0,1,87.5,301.92Z" style="fill:#e0e0e0"></path><g style="opacity:0.30000000000000004"><polygon points="86.23 162.27 121.78 141.75 121.78 182.79 86.23 203.32 86.23 162.27"></polygon></g><path d="M91.56,166.38v12.31l1.12-.66v-3.78a7.85,7.85,0,0,1,3.78-6l5.26-3v18.3a7.87,7.87,0,0,1-3.3,6.28l-3.3,1.91v1.31l17.77-10.27v-1.3l-3.3,1.9c-1.82,1.06-3.3,0-3.3-2.47v-18.3l5.25-3c2.1-1.21,3.79-.5,3.79,1.58v3.77l1.12-.62V152Z" style="fill:#fafafa"></path></g><g id="freepik--document--inject-29"><path d="M101.44,341a4.22,4.22,0,0,1-1.85-3.33V172.36a4.34,4.34,0,0,1,2-3.41l97.62-56.3a3.69,3.69,0,0,1,5.65,3.26V281.17a4.36,4.36,0,0,1-2,3.41l-97.62,56.3A4.2,4.2,0,0,1,101.44,341Z" style="fill:#fafafa"></path><path d="M105.25,340.88l97.62-56.3a4.36,4.36,0,0,0,2-3.41V115.91c0-1.25-.88-1.76-2-1.13l-97.63,56.3a4.36,4.36,0,0,0-2,3.4V339.74C103.28,341,104.16,341.51,105.25,340.88Z" style="fill:#f5f5f5"></path><path d="M105,341a3.67,3.67,0,0,1-5.39-3.39V172.36a4.08,4.08,0,0,1,.57-1.94l3.69,2.13a4,4,0,0,0-.58,1.93V339.75C103.28,340.9,104,341.42,105,341Z" style="fill:#ebebeb"></path><path d="M157.35,153.78l32.31-18.7c1-.55,1.73-.1,1.73,1v.69a3.83,3.83,0,0,1-1.73,3l-32.31,18.7c-1,.55-1.74.11-1.74-1v-.69A3.83,3.83,0,0,1,157.35,153.78Z" style="fill:#e0e0e0"></path><path d="M157.35,165.49l32.31-18.69c1-.56,1.73-.11,1.73,1v.69a3.86,3.86,0,0,1-1.73,3l-32.31,18.69c-1,.56-1.74.11-1.74-1v-.69A3.85,3.85,0,0,1,157.35,165.49Z" style="fill:#e0e0e0"></path><path d="M157.35,177.21l32.31-18.7c1-.55,1.73-.11,1.73,1v.69a3.85,3.85,0,0,1-1.73,3l-32.31,18.7c-1,.55-1.74.1-1.74-1v-.69A3.82,3.82,0,0,1,157.35,177.21Z" style="fill:#e0e0e0"></path><path d="M157.35,188.92l32.31-18.7c1-.55,1.73-.1,1.73,1v.69a3.83,3.83,0,0,1-1.73,3l-32.31,18.7c-1,.55-1.74.1-1.74-1v-.69A3.82,3.82,0,0,1,157.35,188.92Z" style="fill:#e0e0e0"></path><path d="M115.94,224.49l73.72-42.56c1-.55,1.73-.1,1.73,1v.69a3.83,3.83,0,0,1-1.73,3l-73.72,42.56c-1,.55-1.73.11-1.73-1v-.69A3.85,3.85,0,0,1,115.94,224.49Z" style="fill:#e0e0e0"></path><path d="M115.94,236.29l73.72-42.56c1-.55,1.73-.1,1.73,1v.69a3.83,3.83,0,0,1-1.73,3L115.94,241c-1,.55-1.73.11-1.73-1v-.69A3.85,3.85,0,0,1,115.94,236.29Z" style="fill:#e0e0e0"></path><path d="M115.94,248l73.72-42.56c1-.55,1.73-.1,1.73,1v.69a3.83,3.83,0,0,1-1.73,3l-73.72,42.56c-1,.56-1.73.11-1.73-1V251A3.86,3.86,0,0,1,115.94,248Z" style="fill:#e0e0e0"></path><path d="M115.94,259.72l73.72-42.56c1-.56,1.73-.11,1.73,1v.69a3.86,3.86,0,0,1-1.73,3l-73.72,42.56c-1,.55-1.73.1-1.73-1v-.69A3.83,3.83,0,0,1,115.94,259.72Z" style="fill:#e0e0e0"></path><path d="M115.94,271.43l73.72-42.56c1-.55,1.73-.11,1.73,1v.69a3.85,3.85,0,0,1-1.73,3l-73.72,42.56c-1,.55-1.73.1-1.73-1v-.69A3.83,3.83,0,0,1,115.94,271.43Z" style="fill:#e0e0e0"></path><path d="M115.94,283.14l73.72-42.56c1-.55,1.73-.1,1.73,1v.69a3.83,3.83,0,0,1-1.73,3l-73.72,42.56c-1,.55-1.73.11-1.73-1v-.69A3.85,3.85,0,0,1,115.94,283.14Z" style="fill:#e0e0e0"></path><path d="M115.94,294.9l73.72-42.56c1-.55,1.73-.1,1.73,1v.7a3.86,3.86,0,0,1-1.73,3l-73.72,42.55c-1,.56-1.73.11-1.73-1v-.69A3.86,3.86,0,0,1,115.94,294.9Z" style="fill:#e0e0e0"></path><path d="M115.94,306.62l73.72-42.56c1-.55,1.73-.11,1.73,1v.69a3.85,3.85,0,0,1-1.73,3l-73.72,42.56c-1,.55-1.73.1-1.73-1v-.69A3.83,3.83,0,0,1,115.94,306.62Z" style="fill:#e0e0e0"></path><path d="M115.94,318.33l73.72-42.56c1-.55,1.73-.1,1.73,1v.69a3.85,3.85,0,0,1-1.73,3L115.94,323c-1,.55-1.73.1-1.73-1v-.69A3.83,3.83,0,0,1,115.94,318.33Z" style="fill:#e0e0e0"></path><polygon points="114.67 178.68 150.22 158.16 150.22 199.21 114.67 219.73 114.67 178.68" style="fill:#5D82E0"></polygon><path d="M120,182.79V195.1l1.12-.66v-3.78a7.84,7.84,0,0,1,3.79-6l5.25-3V200a7.87,7.87,0,0,1-3.3,6.28l-3.3,1.91v1.31l17.77-10.26V197.9l-3.3,1.91c-1.82,1.05-3.3-.06-3.3-2.47V179l5.25-3c2.1-1.21,3.79-.5,3.79,1.58v3.78l1.12-.63V168.42Z" style="fill:#fafafa"></path></g></g></g><g id="freepik--Photocopier--inject-29"><g id="freepik--photocopier--inject-29"><polygon points="161.62 369.62 231.51 409.97 340.24 347.2 270.34 306.85 161.62 369.62" style="fill:#263238"></polygon><path d="M231.52,410l-69.9-40.35v6.57a4.62,4.62,0,0,0,2.07,3.59l9.58,5.53v-4.49L216,405.48V410l13.47,7.77a4.14,4.14,0,0,0,4.14,0h0l-2.07-1.2Z" style="fill:#37474f"></path><path d="M340.23,347.2v6.58a4.56,4.56,0,0,1-2.06,3.58l-9.58,5.53v-4.48l-81.54,47.07V410l-13.46,7.77c-1.15.66-2.07.12-2.07-1.2V410Z" style="fill:#455a64"></path><polygon points="173.27 385.31 177.16 383.07 173.27 380.82 173.27 385.31" style="fill:#263238"></polygon><polygon points="328.59 362.89 324.7 360.65 328.59 358.41 328.59 362.89" style="fill:#37474f"></polygon><path d="M338.13,345.39a4.8,4.8,0,0,0,2.16-3.75v-44.4l-69.05-39.87L253,267.92v46.9l69,39.87Z" style="fill:#5D82E0"></path><path d="M338.13,345.39a4.8,4.8,0,0,0,2.16-3.75v-44.4l-69.05-39.87L253,267.92v46.9l69,39.87Z" style="fill:#fff;opacity:0.7000000000000001"></path><polygon points="252.97 267.92 252.97 314.82 322.02 354.69 322.02 307.79 252.97 267.92" style="fill:#5D82E0"></polygon><polygon points="252.97 267.92 252.97 314.82 322.02 354.69 322.02 307.79 252.97 267.92" style="opacity:0.30000000000000004"></polygon><polygon points="252.97 267.92 271.24 257.37 340.29 297.24 322.02 307.79 252.97 267.92" style="fill:#5D82E0"></polygon><polygon points="252.97 267.92 271.24 257.37 340.29 297.24 322.02 307.79 252.97 267.92" style="opacity:0.15"></polygon><polygon points="169.69 369.94 214.37 395.74 214.37 386.36 169.69 360.56 169.69 369.94" style="fill:#5D82E0"></polygon><polygon points="169.69 369.94 214.37 395.74 214.37 386.36 169.69 360.56 169.69 369.94" style="opacity:0.15"></polygon><path d="M232.78,406.21l85-49.09a4.8,4.8,0,0,0,2.16-3.75V341.8l-69.05-39.87-89.36,51.59V365.1a4.78,4.78,0,0,0,2.17,3.75l6,3.44v-7l44.68,25.8v7l14.08,8.13A4.73,4.73,0,0,0,232.78,406.21Z" style="fill:#5D82E0"></path><path d="M232.78,406.21l85-49.09a4.8,4.8,0,0,0,2.16-3.75V341.8l-69.05-39.87-89.36,51.59V365.1a4.78,4.78,0,0,0,2.17,3.75l6,3.44v-7l44.68,25.8v7l14.08,8.13A4.73,4.73,0,0,0,232.78,406.21Z" style="fill:#fff;opacity:0.5"></path><polygon points="230.62 393.39 319.98 341.8 250.93 301.93 161.56 353.52 230.62 393.39" style="fill:#5D82E0"></polygon><polygon points="230.62 393.39 319.98 341.8 250.93 301.93 161.56 353.52 230.62 393.39" style="opacity:0.15"></polygon><path d="M320,341.8v14.07l-87.2,50.34c-1.19.69-2.16.13-2.16-1.25V393.39Z" style="fill:#5D82E0"></path><path d="M320,341.8v14.07l-87.2,50.34c-1.19.69-2.16.13-2.16-1.25V393.39Z" style="fill:#fff;opacity:0.7000000000000001"></path><polygon points="169.69 372.29 171.72 371.11 171.72 366.42 169.69 365.25 169.69 372.29" style="fill:#5D82E0"></polygon><polygon points="169.69 372.29 171.72 371.11 171.72 366.42 169.69 365.25 169.69 372.29" style="opacity:0.35000000000000003"></polygon><path d="M240.77,392.22c1.13-.65,2-.12,2,1.17a4.49,4.49,0,0,1-2,3.52c-1.13.65-2,.12-2-1.17A4.49,4.49,0,0,1,240.77,392.22Z" style="fill:#455a64"></path><path d="M311.86,351.18v2.34c0,1.3-1.94,3.47-4.33,4.85l-52.27,30.18c-2.39,1.38-4.33,1.45-4.33.15v-2.34Z" style="fill:#455a64"></path><path d="M232.78,389.8l85-49.1A4.8,4.8,0,0,0,320,337V325.38l-69.05-39.87-89.36,51.6v11.57a4.78,4.78,0,0,0,2.17,3.75l64.72,37.37A4.79,4.79,0,0,0,232.78,389.8Z" style="fill:#5D82E0"></path><path d="M232.78,389.8l85-49.1A4.8,4.8,0,0,0,320,337V325.38l-69.05-39.87-89.36,51.6v11.57a4.78,4.78,0,0,0,2.17,3.75l64.72,37.37A4.79,4.79,0,0,0,232.78,389.8Z" style="fill:#fff;opacity:0.5"></path><polygon points="230.62 376.98 319.98 325.38 250.93 285.51 161.56 337.11 230.62 376.98" style="fill:#5D82E0"></polygon><polygon points="230.62 376.98 319.98 325.38 250.93 285.51 161.56 337.11 230.62 376.98" style="opacity:0.15"></polygon><path d="M320,325.38v14.07l-87.2,50.35c-1.19.69-2.16.12-2.16-1.25V377Z" style="fill:#5D82E0"></path><path d="M320,325.38v14.07l-87.2,50.35c-1.19.69-2.16.12-2.16-1.25V377Z" style="fill:#fff;opacity:0.7000000000000001"></path><path d="M240.77,375.8c1.13-.64,2-.12,2,1.18a4.47,4.47,0,0,1-2,3.51c-1.13.65-2,.13-2-1.17A4.51,4.51,0,0,1,240.77,375.8Z" style="fill:#455a64"></path><path d="M311.86,334.76v2.35c0,1.29-1.94,3.46-4.33,4.84l-52.27,30.18c-2.39,1.38-4.33,1.45-4.33.16v-2.35Z" style="fill:#455a64"></path><path d="M232.78,373.38l85-49.09a4.8,4.8,0,0,0,2.16-3.75V309L250.93,269.1l-89.36,51.59v11.57a4.78,4.78,0,0,0,2.17,3.75l64.72,37.37A4.79,4.79,0,0,0,232.78,373.38Z" style="fill:#5D82E0"></path><path d="M232.78,373.38l85-49.09a4.8,4.8,0,0,0,2.16-3.75V309L250.93,269.1l-89.36,51.59v11.57a4.78,4.78,0,0,0,2.17,3.75l64.72,37.37A4.79,4.79,0,0,0,232.78,373.38Z" style="fill:#fff;opacity:0.5"></path><polygon points="230.62 360.56 319.98 308.97 250.93 269.1 161.56 320.69 230.62 360.56" style="fill:#5D82E0"></polygon><polygon points="230.62 360.56 319.98 308.97 250.93 269.1 161.56 320.69 230.62 360.56" style="opacity:0.15"></polygon><path d="M320,309V323l-87.2,50.34c-1.19.69-2.16.13-2.16-1.25V360.56Z" style="fill:#5D82E0"></path><path d="M320,309V323l-87.2,50.34c-1.19.69-2.16.13-2.16-1.25V360.56Z" style="fill:#fff;opacity:0.7000000000000001"></path><path d="M240.77,359.39c1.13-.65,2-.12,2,1.17a4.49,4.49,0,0,1-2,3.52c-1.13.65-2,.12-2-1.17A4.49,4.49,0,0,1,240.77,359.39Z" style="fill:#455a64"></path><path d="M311.86,318.35v2.34c0,1.3-1.94,3.47-4.33,4.85l-52.27,30.17c-2.39,1.39-4.33,1.45-4.33.16v-2.35Z" style="fill:#455a64"></path><polygon points="230.62 358.21 340.29 294.89 340.29 243.3 271.24 203.43 161.56 266.75 161.56 318.35 230.62 358.21" style="fill:#5D82E0"></polygon><polygon points="230.62 358.21 340.29 294.89 340.29 243.3 271.24 203.43 161.56 266.75 161.56 318.35 230.62 358.21" style="fill:#fff;opacity:0.7000000000000001"></polygon><polygon points="340.29 243.3 230.62 306.62 161.56 266.75 271.24 203.43 340.29 243.3" style="fill:#263238"></polygon><polygon points="230.62 325.38 230.62 358.21 161.56 318.35 161.56 285.51 230.62 325.38" style="fill:#5D82E0"></polygon><polygon points="230.62 325.38 230.62 358.21 161.56 318.35 161.56 285.51 230.62 325.38" style="fill:#fff;opacity:0.5"></polygon><polygon points="161.56 266.75 161.56 285.51 230.62 325.38 230.62 306.62 161.56 266.75" style="fill:#37474f"></polygon><path d="M230.62,306.62l97.49-56.29v14.08a8.12,8.12,0,0,1-4.06,7l-93.43,53.94Z" style="fill:#455a64"></path><path d="M324.05,264.41c0-1.3-.91-1.82-2-1.18a4.51,4.51,0,0,0-2,3.52c0,1.3.91,1.82,2,1.17A4.47,4.47,0,0,0,324.05,264.41Z" style="fill:#fafafa"></path><path d="M313.76,268l-11.92,6.88a4.64,4.64,0,0,0-2.17,3.6c0,1.29,1,1.78,2.17,1.09l11.92-6.88a4.65,4.65,0,0,0,2.16-3.59C315.92,267.8,315,267.31,313.76,268Z" style="fill:#fafafa"></path><path d="M340.29,233.92v7l-12.18,7v-7a40.64,40.64,0,0,0-20.32-35.18l-48.74-28.14,12.19-7L320,198.73A40.63,40.63,0,0,1,340.29,233.92Z" style="fill:#5D82E0"></path><path d="M340.29,233.92v7l-12.18,7v-7a40.64,40.64,0,0,0-20.32-35.18l-48.74-28.14,12.19-7L320,198.73A40.63,40.63,0,0,1,340.29,233.92Z" style="fill:#fff;opacity:0.7000000000000001"></path><path d="M230.62,297.24v7l-69.06-39.86V233.92l48.75,28.14A40.63,40.63,0,0,1,230.62,297.24Z" style="fill:#37474f"></path><path d="M328.11,241v7l-97.49,56.28v-7a40.64,40.64,0,0,0-20.32-35.19l-48.74-28.14,97.49-56.28,48.74,28.14A40.64,40.64,0,0,1,328.11,241Z" style="fill:#455a64"></path><polygon points="177.81 353.52 177.81 318.35 179.84 317.17 208.28 333.59 208.28 368.77 206.25 369.94 177.81 353.52" style="fill:#5D82E0"></polygon><polygon points="177.81 353.52 177.81 318.35 179.84 317.17 208.28 333.59 208.28 368.77 206.25 369.94 177.81 353.52" style="opacity:0.15"></polygon><polygon points="177.81 353.52 177.81 318.35 206.25 334.76 206.25 369.94 177.81 353.52" style="fill:#5D82E0"></polygon><polygon points="177.81 353.52 177.81 318.35 206.25 334.76 206.25 369.94 177.81 353.52" style="fill:#fff;opacity:0.6000000000000001"></polygon><polygon points="179.84 317.17 177.81 318.35 206.25 334.76 208.28 333.59 179.84 317.17" style="fill:#5D82E0"></polygon><polygon points="179.84 317.17 177.81 318.35 206.25 334.76 208.28 333.59 179.84 317.17" style="fill:#fff;opacity:0.8"></polygon><path d="M291.31,208.28a1,1,0,0,0-.61-.86l-29.44-17a3.22,3.22,0,0,0-3,0l-43.32,25a1,1,0,0,0-.61.85v1.35a1,1,0,0,0,.61.84l29.44,17a3.28,3.28,0,0,0,3,0l43.32-25a1.05,1.05,0,0,0,.61-.85Z" style="fill:#ebebeb"></path><path d="M215,215.44l43.32-25a3.22,3.22,0,0,1,3,0l29.44,17a.9.9,0,0,1,0,1.71l-43.32,25a3.28,3.28,0,0,1-3,0l-29.44-17A.91.91,0,0,1,215,215.44Z" style="fill:#fff"></path><path d="M245.9,234.49v1.34a3,3,0,0,1-1.48-.36l-29.43-17a1.06,1.06,0,0,1-.62-.86v-1.34a1,1,0,0,0,.62.85l29.43,17A3,3,0,0,0,245.9,234.49Z" style="fill:#5D82E0"></path><path d="M291.31,206.19a1,1,0,0,0-.61-.86l-29.44-17a3.28,3.28,0,0,0-3,0l-43.32,25a1,1,0,0,0-.61.85v1.35a1.05,1.05,0,0,0,.61.85l29.44,17a3.28,3.28,0,0,0,3,0l43.32-25a1,1,0,0,0,.61-.84Z" style="fill:#ebebeb"></path><path d="M215,213.35l43.32-25a3.28,3.28,0,0,1,3,0l29.44,17c.82.48.82,1.24,0,1.71l-43.32,25a3.22,3.22,0,0,1-3,0l-29.44-17A.91.91,0,0,1,215,213.35Z" style="fill:#fff"></path><path d="M245.9,232.41v1.33a3,3,0,0,1-1.48-.35L215,216.4a1.06,1.06,0,0,1-.62-.85V214.2a1,1,0,0,0,.62.86l29.43,17A3,3,0,0,0,245.9,232.41Z" style="fill:#5D82E0"></path><path d="M173.75,231.57l44.68,25.8,52.81-30.49V212.81L226.56,187l-40.62,23.46a24.35,24.35,0,0,0-12.19,21.1Z" style="fill:#455a64"></path><path d="M271.24,212.81l-40.62,23.45a24.39,24.39,0,0,0-12.19,21.11h0l52.81-30.49Z" style="fill:#263238"></path><path d="M221.7,245.18a24.27,24.27,0,0,0-3.27,12.18h0l-44.68-25.8A24.41,24.41,0,0,1,177,219.38Z" style="fill:#37474f"></path><polygon points="194.06 215.16 226.56 196.39 250.93 210.47 218.43 229.23 194.06 215.16" style="fill:#37474f"></polygon><polygon points="196.09 216.33 218.43 229.23 248.9 211.64 226.56 198.74 196.09 216.33" style="fill:#5D82E0"></polygon><polygon points="226.56 196.39 226.56 198.74 196.09 216.33 194.06 215.16 226.56 196.39" style="fill:#263238"></polygon><path d="M218.09,225.49l-1-.6c-.33-.19-.33-.49,0-.68l3.24-1.88a1.31,1.31,0,0,1,1.19,0l1,.6c.33.19.33.49,0,.68l-3.25,1.88A1.36,1.36,0,0,1,218.09,225.49Z" style="opacity:0.4"></path><path d="M224.74,221.65l-1-.6a.36.36,0,0,1,0-.68l3.25-1.88a1.36,1.36,0,0,1,1.18,0l1,.6a.36.36,0,0,1,0,.68l-3.25,1.88A1.29,1.29,0,0,1,224.74,221.65Z" style="opacity:0.4"></path><path d="M231.38,217.81l-1-.59a.36.36,0,0,1,0-.69l3.25-1.87a1.29,1.29,0,0,1,1.18,0l1,.59a.36.36,0,0,1,0,.69l-3.25,1.87A1.29,1.29,0,0,1,231.38,217.81Z" style="opacity:0.4"></path><path d="M238,214l-1-.6a.36.36,0,0,1,0-.68l3.25-1.88a1.29,1.29,0,0,1,1.18,0l1,.6a.36.36,0,0,1,0,.68L239.21,214A1.36,1.36,0,0,1,238,214Z" style="opacity:0.4"></path><g style="opacity:0.4"><path d="M206,215.83a11.3,11.3,0,0,1,2.18-.81l.4.54-1.13.24a3.19,3.19,0,0,0-1,.34c-1,.6-.58,1.49,1.28,2.56s3.41,1.34,4.43.74a1.85,1.85,0,0,0,.62-.54l.38-.67,1,.24a6.3,6.3,0,0,1-1.39,1.25l-.17.1a6.36,6.36,0,0,1-6.11-.36c-2-1.18-2.28-2.59-.64-3.54Z"></path><path d="M217.81,212.87c2,1.18,2.25,2.61.55,3.6a6.45,6.45,0,0,1-6.22-.32c-2-1.17-2.24-2.6-.53-3.58A6.41,6.41,0,0,1,217.81,212.87Zm-4.41,2.56c1.85,1.07,3.47,1.27,4.64.6.88-.51.37-1.36-1.47-2.42s-3.47-1.28-4.63-.61C211.06,213.51,211.57,214.37,213.4,215.43Z"></path><path d="M218.68,208.59a5.11,5.11,0,0,1,4.93-.19c1.47.85,1.41,2-.17,2.94l-1.36.78,1.82,1-1.21.7-6.57-3.8Zm2.88,3.23,1.1-.63c1.07-.62,1-1.34-.3-2.07a3.27,3.27,0,0,0-3.42-.08l-1.1.64Z"></path><path d="M222.29,206.53l1.21-.83,5.56,1-.26-.51a8,8,0,0,0-1.93-2.46l1.12-.51,1.83,3.46,2.65,1.53-1.2.7-2.21-1.27Z"></path></g><polygon points="171.45 278.78 216.13 304.57 216.13 310.27 171.45 284.47 171.45 278.78" style="fill:#263238"></polygon><polygon points="214.37 307.68 214.37 334.76 173.75 311.31 173.75 284.82 214.37 307.68" style="opacity:0.15"></polygon><path d="M214.37,305.07l-40.62-23.45L127.41,295c-.71.21-1.07.55-1.07.93v2.6c0,.33.27.69.83,1l36.29,20.95a6.7,6.7,0,0,0,4.57.55l46.34-13.37Z" style="fill:#37474f"></path><path d="M214.37,305.07,168,318.45a6.7,6.7,0,0,1-4.57-.55l-36.29-21c-1.2-.69-1.09-1.56.24-1.94l46.34-13.38Z" style="fill:#455a64"></path><path d="M165.62,318.56v2.61a6.23,6.23,0,0,1-2.16-.67l-36.29-20.95c-.56-.33-.84-.69-.83-1v-2.6c0,.33.27.69.83,1l36.29,21A5.83,5.83,0,0,0,165.62,318.56Z" style="fill:#263238"></path><path d="M205.37,300c0-.16-.14-.34-.42-.5l-26.27-15.17a3.4,3.4,0,0,0-2.28-.28L135.88,295.8c-.36.11-.54.28-.54.47v1.94c0,.16.14.34.42.5L162,313.88a3.4,3.4,0,0,0,2.28.28l40.52-11.76c.35-.1.53-.26.54-.45Z" style="fill:#ebebeb"></path><path d="M204.83,300.47l-40.52,11.75a3.34,3.34,0,0,1-2.28-.28l-26.27-15.16c-.6-.35-.55-.78.12-1l40.52-11.75a3.4,3.4,0,0,1,2.28.28L205,299.5C205.55,299.84,205.49,300.28,204.83,300.47Z" style="fill:#fafafa"></path><path d="M205.37,300V302c0,.18-.19.35-.53.45l-40.52,11.75a2.67,2.67,0,0,1-1,.07V312.3a2.89,2.89,0,0,0,1-.08l40.52-11.75C205.19,300.36,205.37,300.19,205.37,300Z" style="fill:#f0f0f0"></path></g></g></svg>
